#!OML:ASF E:\Steps\Project 1\Capture day 1\Session 2\Subject.ASF
:FULLY-SPECIFIED
:DEGREES
300
root -5.89616 16.0522 15.5232 -158.118 -4.62323 -178.764
lowerback -27.4293 -3.48562 -3.24244
upperback 1.14965 -4.02191 1.43446
thorax 16.3393 -2.19994 1.7371
lowerneck -5.29681 -3.1247 6.26189
upperneck 32.9525 0.16803 -6.01061
head 11.5121 1.47878 -3.0613
rclavicle -2.9122e-014 -1.74931e-014
rhumerus -40.186 -18.9466 -77.0449
rradius 34.1494
rwrist -3.27791
rhand 11.0258 -7.95998
rfingers 7.12502
rthumb 36.0987 -34.2522
lclavicle -2.9122e-014 -1.74931e-014
lhumerus -30.6265 2.80653 81.2756
lradius 24.0191
lwrist -3.53303
lhand -19.4617 -8.23095
lfingers 7.12502
lthumb 6.85951 21.6379
rfemur -30.6138 6.4012 24.1919
rtibia 17.9039
rfoot -17.4891 -5.11119
rtoes -15.4573
lfemur -40.5838 -1.54618 -18.5776
ltibia 74.4022
lfoot 1.72021 4.6271
ltoes -23.0796
301
root -5.88694 16.0601 15.3855 -158.02 -4.2812 -178.741
lowerback -27.8656 -3.32077 -3.2542
upperback 1.30787 -3.76817 1.35781
thorax 16.7206 -2.08458 1.73977
lowerneck -5.17362 -3.07047 6.46858
upperneck 32.6244 0.207849 -6.20017
head 11.3561 1.47847 -3.15974
rclavicle -4.2689e-014 1.47101e-014
rhumerus -39.4635 -18.4506 -77.5077
rradius 34.8105
rwrist -3.58741
rhand 10.695 -8.10099
rfingers 7.12502
rthumb 35.7852 -34.47
lclavicle -4.2689e-014 1.47101e-014
lhumerus -30.5996 2.96193 81.1503
lradius 24.0068
lwrist -3.26328
lhand -20.7068 -10.5869
lfingers 7.12502
lthumb 5.65746 19.3176
rfemur -29.9938 6.30302 24.4007
rtibia 17.6119
rfoot -17.7125 -4.74576
rtoes -15.7315
lfemur -41.9128 -1.68238 -18.5649
ltibia 74.125
lfoot 0.754532 4.11716
ltoes -26.0715
302
root -5.87433 16.073 15.2606 -158.065 -3.97814 -178.919
lowerback -27.6475 -3.18892 -3.4998
upperback 1.25742 -3.4976 1.22499
thorax 16.5368 -1.98105 1.84869
lowerneck -4.98724 -3.07674 6.64017
upperneck 32.429 0.203301 -6.33772
head 11.2378 1.47846 -3.23629
rclavicle -1.65488e-014 1.98785e-015
rhumerus -39.2351 -17.9364 -77.8395
rradius 35.6704
rwrist -4.04667
rhand 10.1055 -8.47644
rfingers 7.12502
rthumb 35.2264 -34.9793
lclavicle -1.65488e-014 1.98785e-015
lhumerus -30.8159 3.30385 80.9142
lradius 23.9634
lwrist -3.18073
lhand -20.8199 -11.6702
lfingers 7.12502
lthumb 5.54826 18.2372
rfemur -29.3093 6.38122 24.2777
rtibia 17.3571
rfoot -18.0743 -4.62962
rtoes -13.8267
lfemur -43.1462 -1.87657 -18.703
ltibia 73.718
lfoot 0.0101587 3.99488
ltoes -29.2436
303
root -5.88516 16.0357 15.0406 -158.503 -3.73899 -179.886
lowerback -28.1894 -3.24344 -4.10916
upperback 1.49553 -3.24976 0.729723
thorax 17.0658 -1.90046 1.71147
lowerneck -4.85608 -3.12908 6.63063
upperneck 32.5871 0.176237 -6.22798
head 11.2725 1.50382 -3.19482
rclavicle 2.48481e-015 4.37326e-015
rhumerus -39.1878 -17.2051 -78.3033
rradius 36.3647
rwrist -4.9601
rhand 9.34953 -8.98052
rfingers 7.12502
rthumb 34.5091 -35.6498
lclavicle 2.48481e-015 4.37326e-015
lhumerus -31.279 3.63454 80.5188
lradius 23.9739
lwrist -3.27707
lhand -20.5431 -11.766
lfingers 7.12502
lthumb 5.81553 18.1342
rfemur -27.0626 5.01996 23.7072
rtibia 16.0499
rfoot -18.7891 -3.37351
rtoes -10.7214
lfemur -42.8881 -2.80731 -19.9324
ltibia 72.1359
lfoot -0.469096 3.95603
ltoes -31.2368
304
root -5.84342 16.0988 14.9916 -158.421 -3.91099 -178.787
lowerback -27.1775 -2.97629 -3.41067
upperback 1.23623 -3.22 1.00919
thorax 16.239 -1.83902 1.69456
lowerneck -4.76617 -3.13869 6.68128
upperneck 32.4732 0.132433 -6.19362
head 11.2058 1.48938 -3.19251
rclavicle 3.97569e-016 2.38542e-015
rhumerus -38.636 -16.6657 -78.7589
rradius 37.1817
rwrist -4.95064
rhand 8.98277 -9.09123
rfingers 7.12502
rthumb 34.1609 -35.8391
lclavicle 3.97569e-016 2.38542e-015
lhumerus -31.3532 3.59766 80.2724
lradius 23.922
lwrist -3.18716
lhand -20.6429 -11.8484
lfingers 7.12502
lthumb 5.71912 18.0544
rfemur -27.2873 6.86922 24.6969
rtibia 16.3891
rfoot -19.3419 -4.85455
rtoes -8.87723
lfemur -45.2008 -2.43579 -18.1728
ltibia 72.3665
lfoot -0.991219 3.71681
ltoes -32.1686
305
root -5.8352 16.1051 14.855 -158.492 -3.80997 -178.877
lowerback -27.2221 -2.89636 -3.51772
upperback 1.29563 -3.05552 0.901325
thorax 16.3186 -1.7699 1.69809
lowerneck -4.69262 -3.15784 6.7202
upperneck 32.373 0.107609 -6.24937
head 11.1484 1.47372 -3.22004
rclavicle -1.40143e-014 -9.54166e-015
rhumerus -38.1355 -16.2461 -79.0279
rradius 37.7913
rwrist -5.15366
rhand 8.1336 -8.85819
rfingers 7.12502
rthumb 33.354 -35.783
lclavicle -1.40143e-014 -9.54166e-015
lhumerus -31.5904 3.5094 80.1366
lradius 24.0038
lwrist -2.98486
lhand -20.6842 -11.911
lfingers 7.12502
lthumb 5.67927 17.9929
rfemur -26.4693 7.02558 24.6727
rtibia 16.0404
rfoot -19.6125 -4.83139
rtoes -8.48562
lfemur -46.1456 -2.85234 -18.0656
ltibia 71.2491
lfoot -1.62958 3.88797
ltoes -31.9018
306
root -5.82669 16.1065 14.718 -158.529 -3.57092 -179.119
lowerback -27.2131 -2.81282 -3.84722
upperback 1.3146 -2.81703 0.782066
thorax 16.3274 -1.6874 1.84309
lowerneck -4.63813 -3.3632 6.44135
upperneck 32.4623 -0.186099 -6.02834
head 11.1532 1.34167 -3.11755
rclavicle -4.67144e-015 -3.97569e-016
rhumerus -37.8214 -15.8506 -79.1963
rradius 38.4582
rwrist -5.54763
rhand 7.81337 -9.07733
rfingers 7.12502
rthumb 33.0496 -36.0671
lclavicle -4.67144e-015 -3.97569e-016
lhumerus -31.9287 3.60673 80.0054
lradius 24.2355
lwrist -2.90525
lhand -20.5974 -11.5433
lfingers 7.12502
lthumb 5.76307 18.3584
rfemur -25.7883 7.19748 24.4827
rtibia 15.9092
rfoot -20.0786 -4.77867
rtoes -8.49936
lfemur -47.0385 -3.21723 -18.1176
ltibia 69.8849
lfoot -2.16721 4.25841
ltoes -31.9742
307
root -5.8187 16.1124 14.5795 -158.777 -3.44794 -179.263
lowerback -27.0503 -2.7169 -4.00038
upperback 1.41549 -2.60979 0.62909
thorax 16.3495 -1.5997 1.84671
lowerneck -4.62545 -3.43495 6.29895
upperneck 32.4231 -0.326269 -5.87065
head 11.1276 1.27548 -3.04688
rclavicle -2.42517e-014 -3.57812e-015
rhumerus -37.5325 -15.4902 -79.4629
rradius 39.222
rwrist -5.83612
rhand 7.37817 -9.25626
rfingers 7.12502
rthumb 32.6356 -36.3327
lclavicle -2.42517e-014 -3.57812e-015
lhumerus -32.0094 3.82933 79.7109
lradius 24.1312
lwrist -3.02443
lhand -20.5548 -11.3111
lfingers 7.12502
lthumb 5.80423 18.5894
rfemur -24.7814 7.46655 24.4197
rtibia 15.6846
rfoot -20.9045 -5.05372
rtoes -9.59008
lfemur -47.6071 -3.63201 -17.9975
ltibia 68.4411
lfoot -2.7395 4.57308
ltoes -31.4365
308
root -5.80921 16.1075 14.4413 -158.84 -3.36881 -179.308
lowerback -27.288 -2.58897 -3.94072
upperback 1.59051 -2.40245 0.412963
thorax 16.6486 -1.49382 1.64939
lowerneck -4.64899 -3.41477 6.3948
upperneck 32.1878 -0.411078 -5.79113
head 11.0342 1.23265 -3.04111
rclavicle 2.70347e-014 1.70955e-014
rhumerus -37.0257 -15.2763 -79.8851
rradius 39.8557
rwrist -6.11633
rhand 6.99183 -9.55894
rfingers 7.12502
rthumb 32.2679 -36.7108
lclavicle 2.70347e-014 1.70955e-014
lhumerus -31.8559 3.99159 79.2907
lradius 23.892
lwrist -3.17268
lhand -20.6874 -11.7045
lfingers 7.12502
lthumb 5.67619 18.1995
rfemur -24.0006 7.72724 24.4993
rtibia 15.427
rfoot -20.4906 -5.60627
rtoes -15.6834
lfemur -48.4428 -3.96159 -17.7214
ltibia 66.9996
lfoot -3.51271 4.90242
ltoes -28.922
309
root -5.80659 16.1028 14.2957 -159.074 -3.04433 -179.387
lowerback -26.8023 -2.39908 -4.06045
upperback 1.39045 -2.13518 0.339267
thorax 16.1491 -1.38142 1.75698
lowerneck -4.726 -3.50449 6.04492
upperneck 32.5087 -0.478333 -5.53727
head 11.1773 1.22003 -2.89463
rclavicle -1.86858e-014 -1.59028e-015
rhumerus -37.2029 -14.5678 -79.8935
rradius 40.5358
rwrist -6.99485
rhand 6.24427 -9.54381
rfingers 7.12502
rthumb 31.556 -36.8378
lclavicle -1.86858e-014 -1.59028e-015
lhumerus -32.587 4.04028 79.1625
lradius 24.0327
lwrist -3.143
lhand -20.8984 -12.2264
lfingers 7.12502
lthumb 5.47246 17.683
rfemur -23.0326 7.80768 24.5466
rtibia 15.15
rfoot -20.3842 -5.47295
rtoes -16.6465
lfemur -48.9181 -4.12568 -17.6211
ltibia 65.2592
lfoot -4.24045 5.41914
ltoes -28.8111
310
root -5.79987 16.099 14.1687 -159.018 -2.8182 -179.709
lowerback -27.0828 -2.34021 -4.5074
upperback 1.59417 -1.86908 0.2514
thorax 16.5227 -1.30127 2.00188
lowerneck -4.97912 -3.53826 5.60307
upperneck 32.3721 -0.656695 -5.18951
head 11.172 1.09488 -2.70961
rclavicle -5.96354e-016 -7.15625e-015
rhumerus -36.4414 -14.0672 -80.0337
rradius 41.0147
rwrist -7.83406
rhand 5.96332 -9.67979
rfingers 7.12502
rthumb 31.2884 -37.0259
lclavicle -5.96354e-016 -7.15625e-015
lhumerus -32.4071 3.96099 79.2471
lradius 24.1166
lwrist -3.00077
lhand -20.3409 -11.739
lfingers 7.12502
lthumb 6.01071 18.1558
rfemur -22.4587 7.63305 24.3375
rtibia 15.0241
rfoot -20.6843 -5.17422
rtoes -15.8034
lfemur -49.6387 -4.34421 -17.7135
ltibia 63.4082
lfoot -4.45162 5.79467
ltoes -28.674
311
root -5.80105 16.0902 14.0275 -159.082 -2.40681 -180.001
lowerback -26.8514 -2.1288 -4.57895
upperback 1.45378 -1.54376 -0.0739271
thorax 16.2032 -1.14893 1.81735
lowerneck -5.21337 -3.49723 5.72355
upperneck 32.5413 -0.625314 -5.13587
head 11.2879 1.1372 -2.71218
rclavicle 1.2921e-015 3.18055e-015
rhumerus -36.3 -13.6792 -80.264
rradius 41.3761
rwrist -8.12605
rhand 5.79752 -9.83768
rfingers 7.12502
rthumb 31.1304 -37.2142
lclavicle 1.2921e-015 3.18055e-015
lhumerus -32.8776 3.7434 78.9574
lradius 24.161
lwrist -2.98013
lhand -20.27 -11.4019
lfingers 7.12502
lthumb 6.07915 18.4909
rfemur -21.745 7.50629 24.0688
rtibia 14.8784
rfoot -21.0787 -5.00788
rtoes -16.4917
lfemur -49.907 -4.49489 -17.7925
ltibia 61.0715
lfoot -4.72861 6.24914
ltoes -24.7531
312
root -5.79457 16.0808 13.8933 -159.14 -2.14238 -180.192
lowerback -26.8579 -2.06583 -4.957
upperback 1.51059 -1.32639 -0.117486
thorax 16.2637 -1.08447 2.06189
lowerneck -5.06983 -3.73927 4.82466
upperneck 32.6151 -1.00617 -4.44962
head 11.2851 0.943344 -2.33645
rclavicle -2.88238e-015 -1.11319e-014
rhumerus -35.9237 -13.3465 -80.2616
rradius 41.9015
rwrist -8.4194
rhand 5.76834 -10.1849
rfingers 7.12502
rthumb 31.1026 -37.5668
lclavicle -2.88238e-015 -1.11319e-014
lhumerus -33.0033 4.23211 78.7352
lradius 23.9469
lwrist -3.44019
lhand -20.5074 -11.6375
lfingers 7.12502
lthumb 5.84995 18.2617
rfemur -21.0788 7.72696 23.953
rtibia 14.7691
rfoot -21.5059 -5.16639
rtoes -16.7317
lfemur -50.1707 -4.59296 -17.6507
ltibia 58.5348
lfoot -5.11356 6.59898
ltoes -23.2587
313
root -5.78999 16.0728 13.7552 -159.205 -1.96615 -180.131
lowerback -26.8117 -1.91501 -4.89568
upperback 1.49631 -1.13629 -0.213333
thorax 16.2053 -0.991075 1.99823
lowerneck -5.21733 -3.70097 4.72963
upperneck 32.6051 -1.02731 -4.24028
head 11.3146 0.938947 -2.24656
rclavicle -9.0447e-015 -9.14409e-015
rhumerus -35.7872 -13.0216 -80.4102
rradius 42.5708
rwrist -8.74195
rhand 5.74137 -10.7283
rfingers 7.12502
rthumb 31.0768 -38.1151
lclavicle -9.0447e-015 -9.14409e-015
lhumerus -33.3501 4.52504 78.3246
lradius 23.8749
lwrist -3.62961
lhand -20.9263 -11.9722
lfingers 7.12502
lthumb 5.44555 17.9378
rfemur -20.363 7.92873 24.1194
rtibia 14.6423
rfoot -22.004 -5.05131
rtoes -15.8379
lfemur -50.3794 -4.61192 -17.2062
ltibia 55.8409
lfoot -5.10818 6.93054
ltoes -26.1942
